<?xml version="1.0" standalone="no"?><!DOCTYPE svg PUBLIC "-//W3C//DTD SVG 1.1//EN" "http://www.w3.org/Graphics/SVG/1.1/DTD/svg11.dtd"><svg t="1680761178704" class="icon" viewBox="0 0 1024 1024" version="1.1" xmlns="http://www.w3.org/2000/svg" p-id="7330" xmlns:xlink="http://www.w3.org/1999/xlink" width="200" height="200"><path d="M469.333333 426.666667a128 128 0 1 1 0-256 128 128 0 0 1 0 256z m-139.690666 33.28C208.981333 520.661333 128 657.664 128 810.666667a42.666667 42.666667 0 1 0 85.333333 0c0-170.496 119.808-298.666667 256-298.666667a213.333333 213.333333 0 1 0-139.690666-52.053333z m290.389333 48.64c-80.213333-23.893333-158.933333 38.954667-159.232 124.501333-0.256 20.010667 3.157333 39.808 11.52 58.112 29.738667 66.005333 76.885333 116.650667 132.181333 157.994667 23.338667 17.493333 54.528 16.896 76.373334-1.834667 51.2-43.904 103.850667-91.050667 128.853333-161.152 17.408-49.109333 11.392-98.005333-22.997333-138.112-16.938667-19.669333-36.778667-33.408-58.88-40.021333-22.186667-6.613333-46.165333-5.888-70.954667 2.432-12.8 4.309333-23.04 2.090667-36.864-1.962667z m-64.085333 84.821333c9.514667-7.893333 19.285333-11.349333 28.544-11.306667 9.258667 0.042667 18.773333 3.626667 27.861333 11.221334 8.704 7.381333 17.536 12.970667 27.562667 13.184 10.24 0.213333 19.2-5.290667 28.032-13.610667a34.432 34.432 0 0 1 22.741333-9.984c8.106667-0.341333 17.066667 2.133333 26.325333 7.424 8.576 4.906667 14.506667 10.922667 18.346667 18.176 3.84 7.296 5.845333 16.341333 5.802667 27.733333v0.64c1.109333 15.061333-5.12 30.293333-14.549334 45.568-21.418667 34.432-49.493333 63.146667-79.104 91.52-4.522667 4.352-6.4 4.522667-6.826666 4.48-0.725333 0-2.773333-0.426667-7.594667-4.778666-30.208-27.349333-57.258667-56.96-79.36-91.093334a150.058667 150.058667 0 0 1-14.890667-33.706666 48.64 48.64 0 0 1-0.768-30.72c2.944-9.045333 8.917333-17.365333 17.877334-24.746667z" fill="#14101C" p-id="7331"></path></svg>