<svg t="1665761112163" class="icon" viewBox="0 0 1024 1024" version="1.1" xmlns="http://www.w3.org/2000/svg" p-id="6224" width="32" height="32"><path d="M885.851105 165.722392c-0.926092-9.363252-6.532787-17.638729-14.861476-21.99392-97.770767-51.061956-212.090443-76.865645-339.691609-76.865645-6.532787 0-12.901845 0.217964-19.326161 0.326435l0 0.10847c-6.423293-0.217964-12.738116-0.435928-19.270902-0.435928-127.60219 0-241.921865 25.91216-339.691609 76.865645-8.329712 4.355191-13.936407 12.630668-14.861476 22.102391-1.305739 14.045901-32.335453 346.987782 26.892487 524.781094 1.143033 5.008061 45.89119 167.559227 346.985736 266.527263l0 0c301.042357-98.968036 345.789491-261.519202 346.932524-266.527263C918.186558 512.817622 887.156844 179.87574 885.851105 165.722392zM805.500079 674.93286c-0.435928 1.415232-40.501436 134.134976-293.529243 223.085868l0 0c-252.971525-88.842421-293.038056-221.562165-293.473985-223.085868-49.211818-147.744949-31.464619-421.349397-26.130124-488.633826 86.774319-42.243103 187.701986-63.692624 300.333206-63.692624 6.531763 0 12.846586 0.544399 19.270902 0.653893l0 0 0 0 0.054235 0 0 0c6.478552-0.217964 12.794397-0.653893 19.271926-0.653893 112.63122 0 213.55991 21.449521 300.333206 63.692624C836.965721 253.583462 854.712921 527.07944 805.500079 674.93286z" p-id="6225"></path><path d="M681.164283 320.977385 446.048427 555.714617 342.942141 452.064956c-10.886955-10.996448-28.579919-10.887978-39.413662-0.109494-10.94119 10.887978-10.94119 28.526707-0.107447 39.413662l119.000278 119.5457c3.538593 3.592828 7.838525 5.552459 12.302187 6.750751 4.082992 2.176572 8.438183 3.701299 12.901845 3.701299 7.131421 0 14.262842-2.721994 19.706831-8.16496L720.577944 360.391047c10.886955-10.778484 10.886955-28.525684 0-39.413662C709.689966 310.090431 692.051237 310.090431 681.164283 320.977385z" p-id="6226"></path></svg>
