<svg t="1678594010477" class="icon" viewBox="0 0 1024 1024" version="1.1" xmlns="http://www.w3.org/2000/svg" p-id="1791" width="32" height="32"><path d="M782.791111 643.982222c-47.786667 0-91.022222 22.755556-118.328889 59.164445l-282.168889-147.911111c4.551111-13.653333 4.551111-27.306667 4.551111-40.96 0-15.928889-2.275556-29.582222-6.826666-43.235556L614.4 304.924444c20.48 13.653333 43.235556 22.755556 70.542222 22.755556 65.991111 0 118.328889-52.337778 118.328889-118.328889S750.933333 93.297778 684.942222 93.297778s-118.328889 52.337778-118.328889 118.328889c0 11.377778 2.275556 22.755556 6.826667 34.133333L343.608889 409.6c-27.306667-25.031111-61.44-40.96-102.4-40.96-81.92 0-147.911111 65.991111-147.911111 147.911111s65.991111 147.911111 147.911111 147.911111c40.96 0 77.368889-15.928889 104.675555-43.235555L637.155556 773.688889c0 6.826667-2.275556 13.653333-2.275556 20.48 0 81.92 65.991111 147.911111 147.911111 147.911111s147.911111-65.991111 147.911111-147.911111-65.991111-150.186667-147.911111-150.186667z" fill="" p-id="1792"></path></svg>