<?xml version="1.0" standalone="no"?><!DOCTYPE svg PUBLIC "-//W3C//DTD SVG 1.1//EN" "http://www.w3.org/Graphics/SVG/1.1/DTD/svg11.dtd"><svg t="1665478109909" class="icon" viewBox="0 0 1024 1024" version="1.1" xmlns="http://www.w3.org/2000/svg" p-id="7157" xmlns:xlink="http://www.w3.org/1999/xlink" width="200" height="200"><path d="M265.7 934.2h-184c-0.3 0-0.6-0.3-0.6-0.6V423.7c0-0.3 0.3-0.6 0.6-0.6h184v511.1z" fill="#C0C3C6" p-id="7158"></path><path d="M265.7 951.8H92c-15.8 0-28.7-12.9-28.7-28.7V434c0-15.8 12.9-28.7 28.7-28.7h173.7c9.8 0 17.7 7.9 17.7 17.7v511.1c0 9.8-7.9 17.7-17.7 17.7z m-167-35.3H248V440.7H98.7v475.8z" fill="#2E3742" p-id="7159"></path><path d="M722.5 951.8H265.7c-9.8 0-17.7-7.9-17.7-17.7V423c0-3.2 0.8-6.3 2.5-9L442.8 88.5c11.9-20.3 36-29.5 58.5-22.5l116.8 36.5c14.5 4.5 26.1 15.2 31.8 29.3 5.7 14.1 4.7 29.8-2.6 43.2L571 313.9c-3.7 6.8-1.1 12.7 0.2 14.9 1.3 2.2 5.2 7.4 13 7.4h325.6c16.5 0 31.9 8 41.3 21.5 9.4 13.5 11.7 30.7 6.1 46.2L769.9 918.6c-7.2 19.9-26.2 33.2-47.4 33.2z m-439.1-35.3h439.1c6.3 0 12-4 14.2-9.9l187.2-514.8c1.7-4.7 1-9.7-1.8-13.8-2.9-4.1-7.4-6.4-12.3-6.4H584.2c-18 0-34.3-9.3-43.5-24.8-9.2-15.5-9.5-34.2-0.8-50L616.2 158c3-5.4 1.8-10.4 0.8-12.9s-3.6-6.9-9.5-8.7L490.7 99.7c-6.7-2.1-13.9 0.7-17.5 6.7L283.4 427.9v488.6z m272-611.3h0.2-0.2z" fill="#2E3742" p-id="7160"></path></svg>